<?xml version="1.0" standalone="no"?>
<!DOCTYPE svg PUBLIC "-//W3C//DTD SVG 20010904//EN"
 "http://www.w3.org/TR/2001/REC-SVG-20010904/DTD/svg10.dtd">
<svg version="1.0" xmlns="http://www.w3.org/2000/svg"
 width="158.000000pt" height="50.000000pt" viewBox="0 0 158.000000 50.000000"
 preserveAspectRatio="xMidYMid meet">
<metadata>
Created by potrace 1.10, written by Peter Selinger 2001-2011
</metadata>
<g transform="translate(0.000000,50.000000) scale(0.100000,-0.100000)"
fill="#000000" stroke="none">
<path d="M1350 255 l-23 -25 -609 0 -608 0 0 -25 0 -25 613 0 c601 0 614 0
632 -20 37 -41 105 -10 105 48 0 33 -36 72 -66 72 -11 0 -31 -11 -44 -25z m74
-60 c-9 -23 -32 -25 -56 -4 l-23 19 25 21 24 21 18 -22 c9 -11 15 -27 12 -35z"/>
</g>
</svg>
